<svg width="120" height="132" viewBox="0 0 120 132" fill="none" xmlns="http://www.w3.org/2000/svg">
<path d="M102.5 1.69998e-05H17.5001C10.6132 -0.011233 5.02103 5.56268 5.00978 12.4498C5.00885 13.0102 5.04564 13.5699 5.12017 14.1251C5.29736 15.4943 6.55103 16.4607 7.92049 16.2835C8.25401 16.2404 8.57533 16.1304 8.86526 15.96C9.96823 15.3183 11.2242 14.9867 12.5002 15H30.3003C33.5126 15.0089 36.3666 17.052 37.4103 20.09L37.8352 21.4599C39.5555 26.5522 44.3253 29.9853 49.7002 29.9998H107.5C108.811 30.001 110.099 30.3458 111.235 30.9999C111.619 31.2237 112.056 31.3409 112.5 31.34C113.881 31.34 115 30.2206 115 28.8399V12.5C115 5.59643 109.404 1.69998e-05 102.5 1.69998e-05Z" fill="#FFB110"/>
<path d="M113.513 27.1214L113.516 27.1231C117.23 29.2548 119.515 33.2155 119.5 37.4978V37.4995V82.4996C119.5 89.127 114.127 94.4995 107.5 94.4995H12.4999C5.87256 94.4995 0.5 89.127 0.5 82.4996V22.4995V22.4994C0.498876 18.1645 2.84157 14.1678 6.62411 12.051L6.62414 12.051L6.63086 12.0471C8.41133 11.0141 10.4368 10.4796 12.4951 10.4996V10.4996H12.4999H30.2994C35.458 10.5138 40.0359 13.8076 41.6894 18.6937L42.1124 20.0576L42.1147 20.0648L42.1171 20.0719C43.23 23.3114 46.2733 25.4899 49.6986 25.4994H49.7H107.5H107.5C109.613 25.498 111.688 26.0577 113.513 27.1214Z" fill="#FFDE6C" stroke="#FFDE6C"/>
<g filter="url(#filter0_i)">
<path fill-rule="evenodd" clip-rule="evenodd" d="M41 60.5C41 49.7304 49.7304 41 60.5 41C71.2696 41 80 49.7304 80 60.5C80 71.2696 71.2696 80 60.5 80C49.7304 80 41 71.2696 41 60.5ZM67.4973 65.1189C66.6216 64.6811 65.5568 65.036 65.1189 65.9117L65.0507 66.0352C64.8877 66.3077 64.5661 66.7259 64.0864 67.1523C63.1496 67.985 61.9806 68.4772 60.5 68.4772C59.0193 68.4772 57.8503 67.985 56.9135 67.1523C56.3539 66.6548 56.0094 66.1685 55.881 65.9117L55.7779 65.7321C55.292 64.9894 54.3158 64.7124 53.5026 65.1189C52.6269 65.5568 52.272 66.6216 52.7098 67.4973C53.0246 68.1269 53.6219 68.9701 54.558 69.8022C56.1141 71.1853 58.1028 72.0227 60.5 72.0227C62.8971 72.0227 64.8858 71.1853 66.4419 69.8022C67.378 68.9701 67.9753 68.1269 68.2901 67.4973C68.7279 66.6216 68.373 65.5568 67.4973 65.1189ZM68.4773 55.1818C69.4563 55.1818 70.25 55.9755 70.25 56.9545C70.25 57.8637 69.5657 58.6129 68.684 58.7153L68.4773 58.7273H64.9318C63.9528 58.7273 63.1591 57.9336 63.1591 56.9545C63.1591 56.0454 63.8434 55.2961 64.7251 55.1937L64.9318 55.1818H68.4773ZM56.0563 54.9751C55.9539 54.0934 55.2046 53.4091 54.2955 53.4091C53.3164 53.4091 52.5227 54.2028 52.5227 55.1818V58.7273L52.5347 58.934C52.6371 59.8157 53.3863 60.5 54.2955 60.5C55.2745 60.5 56.0682 59.7063 56.0682 58.7273V55.1818L56.0563 54.9751Z" fill="#FFB110"/>
</g>
<path d="M21.9601 127L26.0881 115.8H27.9441L32.0401 127H30.2481L29.2881 124.264H24.7121L23.7521 127H21.9601ZM25.1921 122.92H28.8081L27.0001 117.816L25.1921 122.92ZM38.3219 127.192C37.7033 127.192 37.1539 127.069 36.6739 126.824C36.2046 126.579 35.8313 126.232 35.5539 125.784L35.3779 127H33.8579V115.48H35.5539V120.296C35.8099 119.923 36.1619 119.592 36.6099 119.304C37.0579 119.016 37.6339 118.872 38.3379 118.872C39.1059 118.872 39.7833 119.053 40.3699 119.416C40.9566 119.779 41.4153 120.275 41.7459 120.904C42.0873 121.533 42.2579 122.248 42.2579 123.048C42.2579 123.848 42.0873 124.563 41.7459 125.192C41.4153 125.811 40.9566 126.301 40.3699 126.664C39.7833 127.016 39.1006 127.192 38.3219 127.192ZM38.0339 125.72C38.7593 125.72 39.3566 125.475 39.8259 124.984C40.2953 124.483 40.5299 123.832 40.5299 123.032C40.5299 122.509 40.4233 122.045 40.2099 121.64C39.9966 121.235 39.7033 120.92 39.3299 120.696C38.9566 120.461 38.5246 120.344 38.0339 120.344C37.3086 120.344 36.7113 120.595 36.2419 121.096C35.7833 121.597 35.5539 122.243 35.5539 123.032C35.5539 123.832 35.7833 124.483 36.2419 124.984C36.7113 125.475 37.3086 125.72 38.0339 125.72ZM48.1243 127.192C47.367 127.192 46.6843 127.021 46.0763 126.68C45.479 126.328 45.0043 125.843 44.6523 125.224C44.3003 124.595 44.1243 123.864 44.1243 123.032C44.1243 122.2 44.3003 121.475 44.6523 120.856C45.015 120.227 45.5003 119.741 46.1083 119.4C46.7163 119.048 47.3936 118.872 48.1403 118.872C48.8976 118.872 49.575 119.048 50.1723 119.4C50.7803 119.741 51.2603 120.227 51.6123 120.856C51.975 121.475 52.1563 122.2 52.1563 123.032C52.1563 123.864 51.975 124.595 51.6123 125.224C51.2603 125.843 50.7803 126.328 50.1723 126.68C49.5643 127.021 48.8816 127.192 48.1243 127.192ZM48.1243 125.736C48.5296 125.736 48.903 125.635 49.2443 125.432C49.5963 125.229 49.879 124.931 50.0923 124.536C50.3056 124.131 50.4123 123.629 50.4123 123.032C50.4123 122.435 50.3056 121.939 50.0923 121.544C49.8896 121.139 49.6123 120.835 49.2603 120.632C48.919 120.429 48.5456 120.328 48.1403 120.328C47.735 120.328 47.3563 120.429 47.0043 120.632C46.663 120.835 46.3856 121.139 46.1723 121.544C45.959 121.939 45.8523 122.435 45.8523 123.032C45.8523 123.629 45.959 124.131 46.1723 124.536C46.3856 124.931 46.663 125.229 47.0043 125.432C47.3456 125.635 47.719 125.736 48.1243 125.736ZM57.2384 127.192C56.2784 127.192 55.5211 126.893 54.9664 126.296C54.4224 125.699 54.1504 124.808 54.1504 123.624V119.064H55.8464V123.448C55.8464 124.984 56.4758 125.752 57.7344 125.752C58.3638 125.752 58.8811 125.528 59.2864 125.08C59.6918 124.632 59.8944 123.992 59.8944 123.16V119.064H61.5904V127H60.0864L59.9584 125.608C59.7131 126.099 59.3504 126.488 58.8704 126.776C58.4011 127.053 57.8571 127.192 57.2384 127.192ZM67.3959 127C66.6173 127 65.9986 126.813 65.5399 126.44C65.0813 126.056 64.8519 125.379 64.8519 124.408V120.488H63.4919V119.064H64.8519L65.0599 117.048H66.5479V119.064H68.7879V120.488H66.5479V124.408C66.5479 124.845 66.6386 125.149 66.8199 125.32C67.0119 125.48 67.3373 125.56 67.7959 125.56H68.7079V127H67.3959ZM75.2079 127V119.064H76.7119L76.8559 120.184C77.1119 119.779 77.4479 119.459 77.8639 119.224C78.2906 118.989 78.7813 118.872 79.3359 118.872C80.5946 118.872 81.4693 119.368 81.9599 120.36C82.2479 119.901 82.6319 119.539 83.1119 119.272C83.6026 119.005 84.1306 118.872 84.6959 118.872C85.6879 118.872 86.4666 119.171 87.0319 119.768C87.5973 120.365 87.8799 121.256 87.8799 122.44V127H86.1839V122.616C86.1839 121.08 85.5973 120.312 84.4239 120.312C83.8266 120.312 83.3359 120.536 82.9519 120.984C82.5786 121.432 82.3919 122.072 82.3919 122.904V127H80.6959V122.616C80.6959 121.08 80.1039 120.312 78.9199 120.312C78.3333 120.312 77.8479 120.536 77.4639 120.984C77.0906 121.432 76.9039 122.072 76.9039 122.904V127H75.2079ZM93.8962 127.192C93.1175 127.192 92.4242 127.021 91.8162 126.68C91.2188 126.328 90.7495 125.843 90.4082 125.224C90.0668 124.605 89.8962 123.885 89.8962 123.064C89.8962 122.232 90.0615 121.501 90.3922 120.872C90.7335 120.243 91.2028 119.752 91.8002 119.4C92.4082 119.048 93.1122 118.872 93.9122 118.872C94.6908 118.872 95.3682 119.048 95.9442 119.4C96.5202 119.741 96.9682 120.2 97.2882 120.776C97.6082 121.352 97.7682 121.987 97.7682 122.68C97.7682 122.787 97.7628 122.904 97.7522 123.032C97.7522 123.149 97.7468 123.283 97.7362 123.432H91.5602C91.6135 124.2 91.8642 124.787 92.3122 125.192C92.7708 125.587 93.2988 125.784 93.8962 125.784C94.3762 125.784 94.7762 125.677 95.0962 125.464C95.4268 125.24 95.6722 124.941 95.8322 124.568H97.5282C97.3148 125.315 96.8882 125.939 96.2482 126.44C95.6188 126.941 94.8348 127.192 93.8962 127.192ZM93.8962 120.264C93.3308 120.264 92.8295 120.435 92.3922 120.776C91.9548 121.107 91.6882 121.608 91.5922 122.28H96.0722C96.0402 121.661 95.8215 121.171 95.4162 120.808C95.0108 120.445 94.5042 120.264 93.8962 120.264Z" fill="#333333"/>
<defs>
<filter id="filter0_i" x="41" y="41" width="39" height="43" filterUnits="userSpaceOnUse" color-interpolation-filters="sRGB">
<feFlood flood-opacity="0" result="BackgroundImageFix"/>
<feBlend mode="normal" in="SourceGraphic" in2="BackgroundImageFix" result="shape"/>
<feColorMatrix in="SourceAlpha" type="matrix" values="0 0 0 0 0 0 0 0 0 0 0 0 0 0 0 0 0 0 127 0" result="hardAlpha"/>
<feOffset dy="4"/>
<feGaussianBlur stdDeviation="2"/>
<feComposite in2="hardAlpha" operator="arithmetic" k2="-1" k3="1"/>
<feColorMatrix type="matrix" values="0 0 0 0 0 0 0 0 0 0 0 0 0 0 0 0 0 0 0.25 0"/>
<feBlend mode="normal" in2="shape" result="effect1_innerShadow"/>
</filter>
</defs>
</svg>
