<svg width="120" height="153" viewBox="0 0 120 153" fill="none" xmlns="http://www.w3.org/2000/svg">
<path d="M23.1257 148V136.8H24.8217V146.656H29.9097V148H23.1257ZM32.9511 138.56C32.6311 138.56 32.3644 138.464 32.1511 138.272C31.9484 138.069 31.8471 137.819 31.8471 137.52C31.8471 137.221 31.9484 136.976 32.1511 136.784C32.3644 136.581 32.6311 136.48 32.9511 136.48C33.2711 136.48 33.5324 136.581 33.7351 136.784C33.9484 136.976 34.0551 137.221 34.0551 137.52C34.0551 137.819 33.9484 138.069 33.7351 138.272C33.5324 138.464 33.2711 138.56 32.9511 138.56ZM32.1031 148V140.064H33.7991V148H32.1031ZM36.3579 148V140.064H37.8619L37.9899 141.456C38.2353 140.965 38.5926 140.581 39.0619 140.304C39.5419 140.016 40.0913 139.872 40.7099 139.872C41.6699 139.872 42.4219 140.171 42.9659 140.768C43.5206 141.365 43.7979 142.256 43.7979 143.44V148H42.1179V143.616C42.1179 142.08 41.4886 141.312 40.2299 141.312C39.6006 141.312 39.0779 141.536 38.6619 141.984C38.2566 142.432 38.0539 143.072 38.0539 143.904V148H36.3579ZM46.1154 148V136.48H47.8114V143.344L50.8514 140.064H52.8834L49.5074 143.664L53.3794 148H51.2354L47.8114 143.936V148H46.1154ZM62.6928 148C61.9141 148 61.2955 147.813 60.8368 147.44C60.3781 147.056 60.1488 146.379 60.1488 145.408V141.488H58.7888V140.064H60.1488L60.3568 138.048H61.8448V140.064H64.0848V141.488H61.8448V145.408C61.8448 145.845 61.9355 146.149 62.1168 146.32C62.3088 146.48 62.6341 146.56 63.0928 146.56H64.0048V148H62.6928ZM69.6624 148.192C68.9051 148.192 68.2224 148.021 67.6144 147.68C67.0171 147.328 66.5424 146.843 66.1904 146.224C65.8384 145.595 65.6624 144.864 65.6624 144.032C65.6624 143.2 65.8384 142.475 66.1904 141.856C66.5531 141.227 67.0384 140.741 67.6464 140.4C68.2544 140.048 68.9318 139.872 69.6784 139.872C70.4358 139.872 71.1131 140.048 71.7104 140.4C72.3184 140.741 72.7984 141.227 73.1504 141.856C73.5131 142.475 73.6944 143.2 73.6944 144.032C73.6944 144.864 73.5131 145.595 73.1504 146.224C72.7984 146.843 72.3184 147.328 71.7104 147.68C71.1024 148.021 70.4198 148.192 69.6624 148.192ZM69.6624 146.736C70.0678 146.736 70.4411 146.635 70.7824 146.432C71.1344 146.229 71.4171 145.931 71.6304 145.536C71.8438 145.131 71.9504 144.629 71.9504 144.032C71.9504 143.435 71.8438 142.939 71.6304 142.544C71.4278 142.139 71.1504 141.835 70.7984 141.632C70.4571 141.429 70.0838 141.328 69.6784 141.328C69.2731 141.328 68.8944 141.429 68.5424 141.632C68.2011 141.835 67.9238 142.139 67.7104 142.544C67.4971 142.939 67.3904 143.435 67.3904 144.032C67.3904 144.629 67.4971 145.131 67.7104 145.536C67.9238 145.931 68.2011 146.229 68.5424 146.432C68.8838 146.635 69.2571 146.736 69.6624 146.736ZM80.2638 148V136.8H87.2878V138.176H81.9598V141.712H86.3758V143.072H81.9598V148H80.2638ZM89.2713 148V136.8H93.4953C94.658 136.8 95.538 137.072 96.1353 137.616C96.7326 138.16 97.0313 138.843 97.0313 139.664C97.0313 140.379 96.8393 140.949 96.4553 141.376C96.0713 141.792 95.6073 142.075 95.0633 142.224C95.49 142.309 95.8686 142.48 96.1993 142.736C96.5406 142.992 96.8073 143.312 96.9993 143.696C97.1913 144.08 97.2873 144.496 97.2873 144.944C97.2873 145.52 97.1433 146.043 96.8553 146.512C96.578 146.971 96.1673 147.333 95.6233 147.6C95.0793 147.867 94.4126 148 93.6233 148H89.2713ZM90.9673 141.6H93.2873C93.938 141.6 94.434 141.451 94.7753 141.152C95.1166 140.843 95.2873 140.421 95.2873 139.888C95.2873 139.365 95.1166 138.949 94.7753 138.64C94.4446 138.331 93.938 138.176 93.2553 138.176H90.9673V141.6ZM90.9673 146.608H93.3993C94.082 146.608 94.61 146.448 94.9833 146.128C95.3673 145.808 95.5593 145.36 95.5593 144.784C95.5593 144.208 95.362 143.755 94.9673 143.424C94.5726 143.083 94.0393 142.912 93.3673 142.912H90.9673V146.608Z" fill="#333333"/>
<g filter="url(#filter0_ii)">
<path fill-rule="evenodd" clip-rule="evenodd" d="M35.5 10C26.6634 10 19.5 17.1634 19.5 26V94C19.5 102.837 26.6634 110 35.5 110H84.5C93.3366 110 100.5 102.837 100.5 94V35L75.5 10H35.5Z" fill="#4876F9"/>
</g>
<g filter="url(#filter1_dd)">
<path d="M57.1517 58.9997C58.908 58.9997 60.563 59.3765 62.128 60.1253C63.3011 60.679 64.3605 61.4328 65.3142 62.3815C66.2442 63.3043 67.0076 64.381 67.5705 65.564C66.8173 66.3178 65.9111 66.6897 64.8517 66.6897C64.4705 66.6873 64.0916 66.6311 63.7261 66.5228C63.0844 65.4829 62.2086 64.6074 61.1686 63.9659C59.9625 63.2237 58.5729 62.8338 57.1567 62.8403C56.1548 62.8403 55.1817 63.0309 54.2417 63.4128C53.2958 63.7983 52.4376 64.3711 51.7186 65.0965L45.9461 70.869C45.2203 71.5882 44.6474 72.4466 44.2617 73.3928C43.8841 74.3181 43.6896 75.3078 43.6892 76.3072C43.6892 77.309 43.8805 78.2822 44.2617 79.2222C44.6444 80.1699 45.2177 81.0289 45.9461 81.7459C46.6649 82.472 47.5234 83.0448 48.4698 83.4297C49.3948 83.8065 50.3873 84.0022 51.3892 84.0022C52.3911 84.0022 53.3642 83.8115 54.3042 83.4297C55.2501 83.0441 56.1083 82.4714 56.8273 81.7459L60.8686 77.7053C62.1517 78.0534 63.478 78.2303 64.8517 78.2303C65.0711 78.2303 65.3811 78.2203 65.7817 78.2015C65.63 78.369 65.4758 78.5343 65.3192 78.6972L59.5467 84.4697C58.4355 85.5815 57.1761 86.4209 55.7636 86.9934C52.9561 88.1394 49.811 88.1376 47.0048 86.9884C45.5879 86.4106 44.3014 85.5541 43.2217 84.4697C42.1105 83.3584 41.2711 82.099 40.6986 80.6915C40.1309 79.3013 39.8392 77.8139 39.8398 76.3122C39.8398 74.8097 40.1305 73.3209 40.6986 71.9328C41.2711 70.5253 42.1105 69.2659 43.2217 68.1547L48.9942 62.3822C49.1042 62.2722 49.2711 62.1197 49.4905 61.9147C50.5431 60.9747 51.7613 60.2387 53.083 59.744C54.3843 59.2564 55.7621 59.0046 57.1517 59.0003V58.9997ZM70.6192 45.5372C72.1223 45.5372 73.6105 45.8284 74.9986 46.3959C76.4061 46.9634 77.6655 47.8084 78.7817 48.9197C79.8936 50.0309 80.738 51.2903 81.3055 52.6978C81.8733 54.0878 82.1634 55.5756 82.1592 57.0772C82.1592 58.5797 81.8686 60.0397 81.2961 61.4565C80.7194 62.8726 79.8627 64.1577 78.7773 65.2347L73.0048 71.0072C72.8948 71.1215 72.728 71.2747 72.5086 71.4747C71.4575 72.4166 70.2389 73.1529 68.9161 73.6453C67.6142 74.1369 66.234 74.3889 64.8423 74.389C63.1201 74.3951 61.4188 74.0105 59.8667 73.264C58.693 72.7103 57.6336 71.9565 56.6792 71.0078C55.7492 70.085 54.9858 69.0083 54.423 67.8253C55.1723 67.0715 56.0792 66.6997 57.1423 66.6997C57.5148 66.6997 57.8917 66.7565 58.2686 66.8665C58.9083 67.9061 59.7821 68.7817 60.8205 69.4234C62.0269 70.1652 63.4167 70.5551 64.833 70.549C65.8342 70.549 66.808 70.3584 67.7473 69.9765C68.6941 69.5923 69.5527 69.0194 70.2711 68.2928L76.0436 62.5203C76.7707 61.8024 77.3436 60.9436 77.7273 59.9965C78.1042 59.0715 78.2998 58.084 78.2998 57.0822C78.2998 56.0803 78.1092 55.1072 77.7273 54.1672C77.3431 53.2204 76.7702 52.3618 76.0436 51.6434C75.3248 50.9173 74.4663 50.3445 73.5198 49.9597C72.5943 49.5824 71.6044 49.388 70.6048 49.3872C69.603 49.3872 68.6298 49.5778 67.6905 49.9597C66.7437 50.344 65.8851 50.9168 65.1667 51.6434L61.1211 55.684C59.8226 55.3328 58.4831 55.1563 57.138 55.159C56.918 55.159 56.608 55.169 56.2073 55.1878C56.3598 55.0209 56.513 54.854 56.6748 54.6922L62.4473 48.9197C63.5244 47.8344 64.8094 46.9777 66.2255 46.4009C67.6523 45.8234 69.1117 45.5322 70.6192 45.5372V45.5372Z" fill="white"/>
</g>
<path d="M98.1545 32.6562H77.8438L100.5 55.3125V35L98.1545 32.6562Z" fill="url(#paint0_linear)"/>
<path d="M91.5 35L100.5 35L75.5 9.99999L75.5 19C75.5 27.8366 82.6634 35 91.5 35Z" fill="#B5C8FC"/>
<defs>
<filter id="filter0_ii" x="19.5" y="9" width="81" height="102" filterUnits="userSpaceOnUse" color-interpolation-filters="sRGB">
<feFlood flood-opacity="0" result="BackgroundImageFix"/>
<feBlend mode="normal" in="SourceGraphic" in2="BackgroundImageFix" result="shape"/>
<feColorMatrix in="SourceAlpha" type="matrix" values="0 0 0 0 0 0 0 0 0 0 0 0 0 0 0 0 0 0 127 0" result="hardAlpha"/>
<feOffset dy="-2"/>
<feGaussianBlur stdDeviation="0.5"/>
<feComposite in2="hardAlpha" operator="arithmetic" k2="-1" k3="1"/>
<feColorMatrix type="matrix" values="0 0 0 0 0 0 0 0 0 0 0 0 0 0 0 0 0 0 0.3 0"/>
<feBlend mode="normal" in2="shape" result="effect1_innerShadow"/>
<feColorMatrix in="SourceAlpha" type="matrix" values="0 0 0 0 0 0 0 0 0 0 0 0 0 0 0 0 0 0 127 0" result="hardAlpha"/>
<feOffset dy="2"/>
<feGaussianBlur stdDeviation="0.5"/>
<feComposite in2="hardAlpha" operator="arithmetic" k2="-1" k3="1"/>
<feColorMatrix type="matrix" values="0 0 0 0 1 0 0 0 0 1 0 0 0 0 1 0 0 0 0.3 0"/>
<feBlend mode="normal" in2="effect1_innerShadow" result="effect2_innerShadow"/>
</filter>
<filter id="filter1_dd" x="38.8398" y="44.5371" width="51.3194" height="53.3145" filterUnits="userSpaceOnUse" color-interpolation-filters="sRGB">
<feFlood flood-opacity="0" result="BackgroundImageFix"/>
<feColorMatrix in="SourceAlpha" type="matrix" values="0 0 0 0 0 0 0 0 0 0 0 0 0 0 0 0 0 0 127 0"/>
<feOffset dx="4" dy="6"/>
<feGaussianBlur stdDeviation="2"/>
<feColorMatrix type="matrix" values="0 0 0 0 0 0 0 0 0 0 0 0 0 0 0 0 0 0 0.1 0"/>
<feBlend mode="normal" in2="BackgroundImageFix" result="effect1_dropShadow"/>
<feColorMatrix in="SourceAlpha" type="matrix" values="0 0 0 0 0 0 0 0 0 0 0 0 0 0 0 0 0 0 127 0"/>
<feOffset/>
<feGaussianBlur stdDeviation="0.5"/>
<feColorMatrix type="matrix" values="0 0 0 0 0 0 0 0 0 0 0 0 0 0 0 0 0 0 0.4 0"/>
<feBlend mode="normal" in2="effect1_dropShadow" result="effect2_dropShadow"/>
<feBlend mode="normal" in="SourceGraphic" in2="effect2_dropShadow" result="shape"/>
</filter>
<linearGradient id="paint0_linear" x1="82.9219" y1="27.5781" x2="105.578" y2="50.2344" gradientUnits="userSpaceOnUse">
<stop stop-opacity="0.2"/>
<stop offset="1" stop-opacity="0"/>
</linearGradient>
</defs>
</svg>
