<svg width="120" height="132" viewBox="0 0 120 132" fill="none" xmlns="http://www.w3.org/2000/svg">
<path d="M102.5 1.69998e-05H17.5001C10.6132 -0.011233 5.02103 5.56268 5.00978 12.4498C5.00885 13.0102 5.04564 13.5699 5.12017 14.1251C5.29736 15.4943 6.55103 16.4607 7.92049 16.2835C8.25401 16.2404 8.57533 16.1304 8.86526 15.96C9.96823 15.3183 11.2242 14.9867 12.5002 15H30.3003C33.5126 15.0089 36.3666 17.052 37.4103 20.09L37.8352 21.4599C39.5555 26.5522 44.3253 29.9853 49.7002 29.9998H107.5C108.811 30.001 110.099 30.3458 111.235 30.9999C111.619 31.2237 112.056 31.3409 112.5 31.34C113.881 31.34 115 30.2206 115 28.8399V12.5C115 5.59643 109.404 1.69998e-05 102.5 1.69998e-05Z" fill="#FFB110"/>
<path d="M113.513 27.1214L113.516 27.1231C117.23 29.2548 119.515 33.2155 119.5 37.4978V37.4995V82.4996C119.5 89.127 114.127 94.4995 107.5 94.4995H12.4999C5.87256 94.4995 0.5 89.127 0.5 82.4996V22.4995V22.4994C0.498876 18.1645 2.84157 14.1678 6.62411 12.051L6.62414 12.051L6.63086 12.0471C8.41133 11.0141 10.4368 10.4796 12.4951 10.4996V10.4996H12.4999H30.2994C35.458 10.5138 40.0359 13.8076 41.6894 18.6937L42.1124 20.0576L42.1147 20.0648L42.1171 20.0719C43.23 23.3114 46.2733 25.4899 49.6986 25.4994H49.7H107.5H107.5C109.613 25.498 111.688 26.0577 113.513 27.1214Z" fill="#FFDE6C" stroke="#FFDE6C"/>
<g filter="url(#filter0_i)">
<path d="M38.2174 74.0464L46.2242 62.2342C46.3267 62.0828 46.4612 61.9558 46.618 61.8623C46.7748 61.7689 46.9501 61.7111 47.1316 61.6932C47.3131 61.6752 47.4963 61.6976 47.6683 61.7586C47.8402 61.8196 47.9967 61.9178 48.1267 62.0462L53.4183 67.25L65.0285 48.9843C65.1434 48.803 65.303 48.6546 65.4918 48.5533C65.6806 48.452 65.8923 48.4014 66.1063 48.4062C66.3203 48.411 66.5295 48.4712 66.7136 48.5808C66.8977 48.6905 67.0505 48.846 67.1572 49.0323L81.5826 74.1252C81.6922 74.3152 81.7499 74.5308 81.75 74.7503C81.7501 74.9698 81.6926 75.1854 81.5832 75.3755C81.4738 75.5656 81.3165 75.7234 81.127 75.8331C80.9376 75.9427 80.7227 76.0003 80.504 76H39.2471C39.0205 76.0005 38.798 75.9388 38.6037 75.8217C38.4094 75.7045 38.2506 75.5363 38.1446 75.3353C38.0386 75.1342 37.9892 74.9079 38.002 74.6807C38.0147 74.4536 38.089 74.2342 38.2168 74.0464H38.2174Z" fill="#FFB110"/>
<path d="M40.6152 47.3002C40.6152 48.9712 41.2765 50.5737 42.4536 51.7552C43.6308 52.9367 45.2273 53.6005 46.8921 53.6005C48.5568 53.6005 50.1533 52.9367 51.3305 51.7552C52.5076 50.5737 53.1689 48.9712 53.1689 47.3002C53.1689 45.6293 52.5076 44.0268 51.3305 42.8453C50.1533 41.6638 48.5568 41 46.8921 41C45.2273 41 43.6308 41.6638 42.4536 42.8453C41.2765 44.0268 40.6152 45.6293 40.6152 47.3002Z" fill="#FFB110"/>
</g>
<path d="M16.1535 127V115.8H17.8495V125.656H22.9375V127H16.1535ZM28.3871 127.192C27.6085 127.192 26.9151 127.021 26.3071 126.68C25.7098 126.328 25.2405 125.843 24.8991 125.224C24.5578 124.605 24.3871 123.885 24.3871 123.064C24.3871 122.232 24.5525 121.501 24.8831 120.872C25.2245 120.243 25.6938 119.752 26.2911 119.4C26.8991 119.048 27.6031 118.872 28.4031 118.872C29.1818 118.872 29.8591 119.048 30.4351 119.4C31.0111 119.741 31.4591 120.2 31.7791 120.776C32.0991 121.352 32.2591 121.987 32.2591 122.68C32.2591 122.787 32.2538 122.904 32.2431 123.032C32.2431 123.149 32.2378 123.283 32.2271 123.432H26.0511C26.1045 124.2 26.3551 124.787 26.8031 125.192C27.2618 125.587 27.7898 125.784 28.3871 125.784C28.8671 125.784 29.2671 125.677 29.5871 125.464C29.9178 125.24 30.1631 124.941 30.3231 124.568H32.0191C31.8058 125.315 31.3791 125.939 30.7391 126.44C30.1098 126.941 29.3258 127.192 28.3871 127.192ZM28.3871 120.264C27.8218 120.264 27.3205 120.435 26.8831 120.776C26.4458 121.107 26.1791 121.608 26.0831 122.28H30.5631C30.5311 121.661 30.3125 121.171 29.9071 120.808C29.5018 120.445 28.9951 120.264 28.3871 120.264ZM37.4638 127C36.6851 127 36.0664 126.813 35.6078 126.44C35.1491 126.056 34.9198 125.379 34.9198 124.408V120.488H33.5598V119.064H34.9198L35.1278 117.048H36.6158V119.064H38.8558V120.488H36.6158V124.408C36.6158 124.845 36.7064 125.149 36.8878 125.32C37.0798 125.48 37.4051 125.56 37.8638 125.56H38.7758V127H37.4638ZM40.4445 119.56L41.3405 115.8H43.1805L41.6285 119.56H40.4445ZM47.4906 127.192C46.488 127.192 45.6613 126.947 45.0106 126.456C44.36 125.965 43.9866 125.315 43.8906 124.504H45.6026C45.688 124.867 45.8906 125.181 46.2106 125.448C46.5306 125.704 46.952 125.832 47.4746 125.832C47.9866 125.832 48.36 125.725 48.5946 125.512C48.8293 125.299 48.9466 125.053 48.9466 124.776C48.9466 124.371 48.7813 124.099 48.4506 123.96C48.1306 123.811 47.6826 123.677 47.1066 123.56C46.6586 123.464 46.2106 123.336 45.7626 123.176C45.3253 123.016 44.9573 122.792 44.6586 122.504C44.3706 122.205 44.2266 121.805 44.2266 121.304C44.2266 120.611 44.4933 120.035 45.0266 119.576C45.56 119.107 46.3066 118.872 47.2666 118.872C48.152 118.872 48.8666 119.085 49.4106 119.512C49.9653 119.939 50.2906 120.541 50.3866 121.32H48.7546C48.7013 120.979 48.5413 120.712 48.2746 120.52C48.0186 120.328 47.672 120.232 47.2346 120.232C46.808 120.232 46.4773 120.323 46.2426 120.504C46.008 120.675 45.8906 120.899 45.8906 121.176C45.8906 121.453 46.0506 121.672 46.3706 121.832C46.7013 121.992 47.1333 122.136 47.6666 122.264C48.2 122.381 48.6906 122.52 49.1386 122.68C49.5973 122.829 49.9653 123.053 50.2426 123.352C50.52 123.651 50.6586 124.088 50.6586 124.664C50.6693 125.389 50.3866 125.992 49.8106 126.472C49.2453 126.952 48.472 127.192 47.4906 127.192ZM60.5094 127C59.7307 127 59.112 126.813 58.6534 126.44C58.1947 126.056 57.9654 125.379 57.9654 124.408V120.488H56.6054V119.064H57.9654L58.1734 117.048H59.6614V119.064H61.9014V120.488H59.6614V124.408C59.6614 124.845 59.752 125.149 59.9334 125.32C60.1254 125.48 60.4507 125.56 60.9094 125.56H61.8214V127H60.5094ZM63.9701 127V119.064H65.4901L65.6341 120.568C65.9115 120.045 66.2955 119.635 66.7861 119.336C67.2875 119.027 67.8901 118.872 68.5941 118.872V120.648H68.1301C67.6608 120.648 67.2395 120.728 66.8661 120.888C66.5035 121.037 66.2101 121.299 65.9861 121.672C65.7728 122.035 65.6661 122.541 65.6661 123.192V127H63.9701ZM73.0562 127.192C72.3842 127.192 71.8296 127.08 71.3922 126.856C70.9549 126.632 70.6296 126.339 70.4162 125.976C70.2029 125.603 70.0962 125.197 70.0962 124.76C70.0962 123.992 70.3949 123.384 70.9922 122.936C71.5896 122.488 72.4429 122.264 73.5522 122.264H75.6322V122.12C75.6322 121.501 75.4616 121.037 75.1202 120.728C74.7896 120.419 74.3576 120.264 73.8242 120.264C73.3549 120.264 72.9442 120.381 72.5922 120.616C72.2509 120.84 72.0429 121.176 71.9682 121.624H70.2722C70.3256 121.048 70.5176 120.557 70.8482 120.152C71.1896 119.736 71.6162 119.421 72.1282 119.208C72.6509 118.984 73.2216 118.872 73.8402 118.872C74.9496 118.872 75.8082 119.165 76.4162 119.752C77.0242 120.328 77.3282 121.117 77.3282 122.12V127H75.8562L75.7122 125.64C75.4882 126.077 75.1629 126.445 74.7362 126.744C74.3096 127.043 73.7496 127.192 73.0562 127.192ZM73.3922 125.816C73.8509 125.816 74.2349 125.709 74.5442 125.496C74.8642 125.272 75.1096 124.979 75.2802 124.616C75.4616 124.253 75.5736 123.853 75.6162 123.416H73.7282C73.0562 123.416 72.5762 123.533 72.2882 123.768C72.0109 124.003 71.8722 124.296 71.8722 124.648C71.8722 125.011 72.0056 125.299 72.2722 125.512C72.5496 125.715 72.9229 125.816 73.3922 125.816ZM81.5841 127L78.6081 119.064H80.3841L82.5921 125.384L84.8001 119.064H86.5601L83.6001 127H81.5841ZM91.5796 127.192C90.801 127.192 90.1076 127.021 89.4996 126.68C88.9023 126.328 88.433 125.843 88.0916 125.224C87.7503 124.605 87.5796 123.885 87.5796 123.064C87.5796 122.232 87.745 121.501 88.0756 120.872C88.417 120.243 88.8863 119.752 89.4836 119.4C90.0916 119.048 90.7956 118.872 91.5956 118.872C92.3743 118.872 93.0516 119.048 93.6276 119.4C94.2036 119.741 94.6516 120.2 94.9716 120.776C95.2916 121.352 95.4516 121.987 95.4516 122.68C95.4516 122.787 95.4463 122.904 95.4356 123.032C95.4356 123.149 95.4303 123.283 95.4196 123.432H89.2436C89.297 124.2 89.5476 124.787 89.9956 125.192C90.4543 125.587 90.9823 125.784 91.5796 125.784C92.0596 125.784 92.4596 125.677 92.7796 125.464C93.1103 125.24 93.3556 124.941 93.5156 124.568H95.2116C94.9983 125.315 94.5716 125.939 93.9316 126.44C93.3023 126.941 92.5183 127.192 91.5796 127.192ZM91.5796 120.264C91.0143 120.264 90.513 120.435 90.0756 120.776C89.6383 121.107 89.3716 121.608 89.2756 122.28H93.7556C93.7236 121.661 93.505 121.171 93.0996 120.808C92.6943 120.445 92.1876 120.264 91.5796 120.264ZM97.5314 127V115.48H99.2274V127H97.5314ZM102.047 123.688L101.855 115.8H103.679L103.487 123.688H102.047ZM102.815 127.096C102.484 127.096 102.212 126.995 101.999 126.792C101.796 126.579 101.695 126.328 101.695 126.04C101.695 125.741 101.796 125.491 101.999 125.288C102.212 125.075 102.484 124.968 102.815 124.968C103.124 124.968 103.38 125.075 103.583 125.288C103.796 125.491 103.903 125.741 103.903 126.04C103.903 126.328 103.796 126.579 103.583 126.792C103.38 126.995 103.124 127.096 102.815 127.096Z" fill="#333333"/>
<defs>
<filter id="filter0_i" x="38" y="41" width="45.5" height="36.75" filterUnits="userSpaceOnUse" color-interpolation-filters="sRGB">
<feFlood flood-opacity="0" result="BackgroundImageFix"/>
<feBlend mode="normal" in="SourceGraphic" in2="BackgroundImageFix" result="shape"/>
<feColorMatrix in="SourceAlpha" type="matrix" values="0 0 0 0 0 0 0 0 0 0 0 0 0 0 0 0 0 0 127 0" result="hardAlpha"/>
<feOffset dx="1.75" dy="2.625"/>
<feGaussianBlur stdDeviation="0.875"/>
<feComposite in2="hardAlpha" operator="arithmetic" k2="-1" k3="1"/>
<feColorMatrix type="matrix" values="0 0 0 0 0 0 0 0 0 0 0 0 0 0 0 0 0 0 0.1 0"/>
<feBlend mode="normal" in2="shape" result="effect1_innerShadow"/>
</filter>
</defs>
</svg>
